<svg xmlns="http://www.w3.org/2000/svg" viewBox="0 0 130.18 54.43"><defs><style>.cls-1{fill:#c9a063;}</style></defs><g id="レイヤー_2" data-name="レイヤー 2"><g id="レイヤー_1-2" data-name="レイヤー 1"><path class="cls-1" d="M44.69,50.67c.13,0,.62,0,1.26-.13a12,12,0,0,0,2.2-.53,10.46,10.46,0,0,0,1.92-.83l.56-.35.2-.13-.17.15a6.2,6.2,0,0,1-.47.41,9.52,9.52,0,0,1-1.76,1.08,12,12,0,0,1-2.21.83,12.8,12.8,0,0,1-1.36.29c-.94.14-1.47-.09-1.46-.31S43.84,50.71,44.69,50.67Z"/><path class="cls-1" d="M46.5,51.41c.08,0,.39-.12.8-.27a11,11,0,0,0,1.38-.59,10,10,0,0,0,1.2-.71c.3-.2.49-.35.49-.35s-.13.17-.36.43a7.89,7.89,0,0,1-1,.91,11,11,0,0,1-1.22.86c-.38.22-.68.38-.76.41-.55.27-1,.17-1.14,0S45.94,51.57,46.5,51.41Z"/><path class="cls-1" d="M50.28,50.07s-1.1,2.34-1.2,2.53a.7.7,0,0,1-.86.27c-.29-.1-.47-.36-.18-.64Z"/><path class="cls-1" d="M50.35,50.65l0-.09v.09a1.29,1.29,0,0,0,0,.24,2.21,2.21,0,0,0,.26.71,2.52,2.52,0,0,0,.49.64,4.61,4.61,0,0,0,.36.31c.24.18.14.41-.11.57a.65.65,0,0,1-.88-.16,2.68,2.68,0,0,1-.24-.46,2.72,2.72,0,0,1-.17-.84,2.18,2.18,0,0,1,.12-.77A1,1,0,0,1,50.35,50.65Z"/><path class="cls-1" d="M81.75,50.34A9.52,9.52,0,0,1,80,49.26a6.2,6.2,0,0,1-.47-.41l-.17-.15.2.13.56.35A10.46,10.46,0,0,0,82,50a12,12,0,0,0,2.2.53c.64.09,1.13.12,1.26.13.85,0,1.29.25,1.29.48s-.52.45-1.46.31A12.8,12.8,0,0,1,84,51.17,12,12,0,0,1,81.75,50.34Z"/><path class="cls-1" d="M81.13,50.83a7.89,7.89,0,0,1-1-.91c-.23-.26-.36-.43-.36-.43s.19.15.49.35a10,10,0,0,0,1.2.71,11,11,0,0,0,1.38.59c.41.15.72.24.8.27.56.16.71.44.57.65s-.59.31-1.14,0c-.08,0-.38-.19-.76-.41A11,11,0,0,1,81.13,50.83Z"/><path class="cls-1" d="M82.14,52.23c.29.28.11.54-.18.64a.7.7,0,0,1-.86-.27c-.1-.19-1.2-2.53-1.2-2.53Z"/><path class="cls-1" d="M79,52.24a2.52,2.52,0,0,0,.49-.64,2,2,0,0,0,.26-.71,1.29,1.29,0,0,0,0-.24v-.09l0,.09a1,1,0,0,1,.09.24,2.18,2.18,0,0,1,.12.77,2.72,2.72,0,0,1-.17.84,2.68,2.68,0,0,1-.24.46.65.65,0,0,1-.88.16c-.25-.16-.35-.39-.11-.57A4.61,4.61,0,0,0,79,52.24Z"/><path class="cls-1" d="M94.16,47.51a9.94,9.94,0,0,0,1-.58,8.7,8.7,0,0,0,1.42-1.27,6.14,6.14,0,0,0,.93-1.43,4.3,4.3,0,0,0,.19-.5l.06-.19v.2c0,.13,0,.3-.08.52a5,5,0,0,1-.6,1.57,7.28,7.28,0,0,1-1.19,1.52,7.1,7.1,0,0,1-.9.76c-.67.47-1.29.48-1.47.3S93.48,47.87,94.16,47.51Z"/><path class="cls-1" d="M96.72,46.92a6.82,6.82,0,0,0,.68-1,5.55,5.55,0,0,0,.43-1c.09-.29.13-.48.13-.48a4.42,4.42,0,0,1,0,.49A4.61,4.61,0,0,1,97.93,46a6,6,0,0,1-.33,1.17,4.75,4.75,0,0,1-.31.64.82.82,0,0,1-1,.4c-.28-.13-.38-.42,0-.76C96.31,47.39,96.49,47.2,96.72,46.92Z"/><path class="cls-1" d="M99.37,47.47c.11.32-.17.52-.5.55s-.68-.13-.66-.47.14-2.65.14-2.65S99.3,47.27,99.37,47.47Z"/><path class="cls-1" d="M98.87,45.35l0-.09.08.08.22.19a4.41,4.41,0,0,0,.78.49,5.48,5.48,0,0,0,1.47.47c.35.07.45.3.36.52s-.43.39-.86.21c-.06,0-.29-.14-.56-.3a4,4,0,0,1-.81-.64,3.11,3.11,0,0,1-.53-.69A2.15,2.15,0,0,1,98.87,45.35Z"/><path class="cls-1" d="M124.86,33.23a13.4,13.4,0,0,1-2.34-.24c-.3-.06-.55-.11-.72-.16l-.26-.07.27,0c.18,0,.44.05.74.07a13.36,13.36,0,0,0,2.27,0,13.87,13.87,0,0,0,2.26-.39c.62-.17,1-.33,1.16-.37.75-.29,1.28-.28,1.47-.09s-.08.58-1,.81a11.48,11.48,0,0,1-1.37.27A14.93,14.93,0,0,1,124.86,33.23Z"/><path class="cls-1" d="M124.73,33.87a11.84,11.84,0,0,1-1.53-.4l-.65-.22.7.11a15.25,15.25,0,0,0,1.57.14,14,14,0,0,0,1.62,0c.46,0,.79-.07.88-.08.59-.08.94.1,1,.33s-.25.48-.92.47l-1-.06C125.93,34.08,125.31,34,124.73,33.87Z"/><path class="cls-1" d="M126.69,34.66c.46.13.53.41.36.61a.77.77,0,0,1-.93.09c-.24-.12-3-1.66-3-1.66Z"/><path class="cls-1" d="M123.63,34.44l-.17-.21-.07-.08.1.06.27.16a4.25,4.25,0,0,1,.72.61,3.13,3.13,0,0,1,.53.77,2.31,2.31,0,0,1,.17.47c.08.34-.29.5-.61.46s-.6-.19-.55-.43a2.31,2.31,0,0,0,0-.39,2,2,0,0,0-.1-.73A2.22,2.22,0,0,0,123.63,34.44Z"/><path class="cls-1" d="M32.56,44.26c0-.22-.07-.39-.08-.52s0-.2,0-.2l.06.19a4.3,4.3,0,0,0,.19.5,6.14,6.14,0,0,0,.93,1.43,8.7,8.7,0,0,0,1.42,1.27,9.94,9.94,0,0,0,1,.58c.68.36.88.7.7.9s-.8.17-1.47-.3a7.1,7.1,0,0,1-.9-.76,7.28,7.28,0,0,1-1.19-1.52A5,5,0,0,1,32.56,44.26Z"/><path class="cls-1" d="M32.35,44.86a5.55,5.55,0,0,0,.43,1,6.82,6.82,0,0,0,.68,1c.23.28.41.47.46.53.34.34.24.63,0,.76a.82.82,0,0,1-1-.4,4.75,4.75,0,0,1-.31-.64A6,6,0,0,1,32.25,46a4.61,4.61,0,0,1-.07-1.13,4.42,4.42,0,0,1,0-.49S32.26,44.57,32.35,44.86Z"/><path class="cls-1" d="M31.83,44.9s.13,2.45.14,2.65-.33.49-.66.47-.61-.23-.5-.55S31.83,44.9,31.83,44.9Z"/><path class="cls-1" d="M28.8,46.49A5.48,5.48,0,0,0,30.27,46a4.07,4.07,0,0,0,.78-.49l.22-.19.08-.08,0,.09a2.15,2.15,0,0,1-.11.24,3.11,3.11,0,0,1-.53.69,4,4,0,0,1-.81.64c-.27.16-.5.27-.56.3-.43.18-.78,0-.86-.21S28.45,46.56,28.8,46.49Z"/><path class="cls-1" d="M.06,28.54A2.24,2.24,0,0,0,.49,30.4,4.51,4.51,0,0,0,2,31.65a8.37,8.37,0,0,0,1.82.67,14.75,14.75,0,0,0,3.2.37c.87,0,1.59,0,2.19-.06a6.09,6.09,0,0,0-1.47.72,3.63,3.63,0,0,0-1.15,1.27,2.23,2.23,0,0,0-.18,1.71,2.28,2.28,0,0,0,.45.8,3.47,3.47,0,0,0,.74.63,4.86,4.86,0,0,0,1.76.66,4.93,4.93,0,0,0,1.42,0,3.91,3.91,0,0,0,1.13-.3,3.25,3.25,0,0,0,.8-.52,1.68,1.68,0,0,0,.62-1.14,1,1,0,0,0-.28-.79.47.47,0,0,0-.45-.17c-.24.07-.24.41-.53.78a2.09,2.09,0,0,1-.63.57,2.38,2.38,0,0,1-1,.34,3.34,3.34,0,0,1-.73,0,3.16,3.16,0,0,1-1.09-.32,1.92,1.92,0,0,1-.88-.83,1.6,1.6,0,0,1-.09-1.24,2.44,2.44,0,0,1,.76-1.07A4.81,4.81,0,0,1,9.87,33a8.46,8.46,0,0,1,3.68-.45,8.39,8.39,0,0,1,2.44.58,5.92,5.92,0,0,1,1.81,1.11,3.29,3.29,0,0,1,1.2,2.9,3.4,3.4,0,0,1-.75,1.58h0a4.69,4.69,0,0,0-2.71-.3,3.1,3.1,0,0,0-.73.23,2.39,2.39,0,0,0-.61.4,1,1,0,0,0-.31.59.69.69,0,0,0,.33.64,2.35,2.35,0,0,0,1.87.27l.08,0a2.59,2.59,0,0,0-.31.38,1.9,1.9,0,0,0-.26.81,1.82,1.82,0,0,0,.26,1L16,43h.29a5.12,5.12,0,0,0,1.52-.25,3.85,3.85,0,0,0,1-.49,2.07,2.07,0,0,0,.39-.34s0,0,0,.05A1.33,1.33,0,0,0,20.24,43a1.84,1.84,0,0,0,1,0,1.72,1.72,0,0,0,.66-.43,1.43,1.43,0,0,0,.3-.55,1.14,1.14,0,0,0,0-.55,2.42,2.42,0,0,0-1.46-1.59h0a5.84,5.84,0,0,1,1.82-1.1,8.44,8.44,0,0,1,4.33-.39,7.92,7.92,0,0,1,2.21.7,5.6,5.6,0,0,1,1.73,1.32,3.16,3.16,0,0,1,.87,2.5,2.64,2.64,0,0,1-.5,1.2,3,3,0,0,1-1.13.89,4.24,4.24,0,0,1-1.69.44,3.45,3.45,0,0,1-1.46-.23,2.27,2.27,0,0,1-.85-.56,1.36,1.36,0,0,1-.28-.46,1,1,0,0,1,.07-.76,1.83,1.83,0,0,1,.51-.62c.38-.33.84-.47.84-.65s-.14-.17-.42-.21a2.69,2.69,0,0,0-1.16.13,2.92,2.92,0,0,0-1.28.85,1.86,1.86,0,0,0-.37.71,1.39,1.39,0,0,0,0,.83,2.31,2.31,0,0,0,.61.89,4.39,4.39,0,0,0,1.58.85,5.4,5.4,0,0,0,1.13.21,5.15,5.15,0,0,0,1.24,0,5.45,5.45,0,0,0,2.22-.79A3.8,3.8,0,0,0,32,44.32a2.91,2.91,0,0,0,.39-1.21,11.51,11.51,0,0,0,.79,1.41A7.4,7.4,0,0,0,35,46.39a6.73,6.73,0,0,0,1.61.88,6.91,6.91,0,0,0,2.28.49A7.78,7.78,0,0,0,40,47.7a1.74,1.74,0,0,0,.26.72,3.87,3.87,0,0,0,1.85,1.38,7.08,7.08,0,0,0,2.3.46,9.56,9.56,0,0,0,2-.13,12.6,12.6,0,0,0,3-.9c.74-.32,1.31-.61,1.78-.87a3.32,3.32,0,0,0-.64,1.16A2.45,2.45,0,0,0,50.63,51a3.14,3.14,0,0,0,1.22,1.5,4,4,0,0,0,1,.49,4.81,4.81,0,0,0,1.11.25,5.83,5.83,0,0,0,2-.12,3.84,3.84,0,0,0,1.21-.5,2.17,2.17,0,0,0,.7-.68,1.62,1.62,0,0,0,.26-.73A1.55,1.55,0,0,0,57.76,50a1.79,1.79,0,0,0-.87-.56c-.26-.07-.44,0-.51,0s.13.44.19.86a1.5,1.5,0,0,1-.08.71,1.33,1.33,0,0,1-.55.66,2.11,2.11,0,0,1-.6.28,3.47,3.47,0,0,1-1.16.15,3.23,3.23,0,0,1-1.4-.36,2.55,2.55,0,0,1-1.07-1,1.83,1.83,0,0,1-.22-1.17A2.6,2.6,0,0,1,52,48.42a5.71,5.71,0,0,1,2.72-1.76,8.85,8.85,0,0,1,4.91-.2,5.91,5.91,0,0,1,3.31,2A3.13,3.13,0,0,1,63.6,50h0a4.11,4.11,0,0,0-2.51.78,1.67,1.67,0,0,0-.42.46,1.33,1.33,0,0,0-.19.57.91.91,0,0,0,.21.61,1.39,1.39,0,0,0,.79.41,2.22,2.22,0,0,0,1.78-.49l.05,0a2,2,0,0,0,0,.43,2.2,2.2,0,0,0,.43.77,3.17,3.17,0,0,0,1.06.79l.25.1h0l.25-.1a3.17,3.17,0,0,0,1.06-.79,2.2,2.2,0,0,0,.43-.77,2,2,0,0,0,0-.43l0,0a2.22,2.22,0,0,0,1.78.49,1.39,1.39,0,0,0,.79-.41.91.91,0,0,0,.21-.61,1.33,1.33,0,0,0-.19-.57,1.67,1.67,0,0,0-.42-.46,4.1,4.1,0,0,0-2.5-.78h0a3.13,3.13,0,0,1,.63-1.61,5.91,5.91,0,0,1,3.31-2,8.85,8.85,0,0,1,4.91.2,5.66,5.66,0,0,1,2.72,1.76,2.6,2.6,0,0,1,.54,1.19,1.83,1.83,0,0,1-.22,1.17,2.55,2.55,0,0,1-1.07,1,3.23,3.23,0,0,1-1.4.36A3.47,3.47,0,0,1,74.84,52a2.11,2.11,0,0,1-.6-.28,1.33,1.33,0,0,1-.55-.66,1.38,1.38,0,0,1-.08-.71c.06-.42.33-.7.19-.86s-.25-.09-.51,0a1.79,1.79,0,0,0-.87.56A1.55,1.55,0,0,0,72,51.22a1.62,1.62,0,0,0,.26.73,2.17,2.17,0,0,0,.7.68,3.84,3.84,0,0,0,1.21.5,5.83,5.83,0,0,0,2,.12A4.81,4.81,0,0,0,77.31,53a4,4,0,0,0,1-.49A3.14,3.14,0,0,0,79.55,51a2.45,2.45,0,0,0,0-1.49A3.32,3.32,0,0,0,79,48.36c.47.26,1,.55,1.78.87a12.6,12.6,0,0,0,3,.9,9.56,9.56,0,0,0,2,.13,7.08,7.08,0,0,0,2.3-.46,3.87,3.87,0,0,0,1.85-1.38,1.74,1.74,0,0,0,.26-.72,7.78,7.78,0,0,0,1.17.06,6.91,6.91,0,0,0,2.28-.49,6.73,6.73,0,0,0,1.61-.88A7.4,7.4,0,0,0,97,44.52a11.51,11.51,0,0,0,.79-1.41,2.91,2.91,0,0,0,.39,1.21,3.8,3.8,0,0,0,1.23,1.23,5.45,5.45,0,0,0,2.22.79,5.15,5.15,0,0,0,1.24,0,5.4,5.4,0,0,0,1.13-.21,4.39,4.39,0,0,0,1.58-.85,2.31,2.31,0,0,0,.61-.89,1.39,1.39,0,0,0,0-.83,1.86,1.86,0,0,0-.37-.71,2.92,2.92,0,0,0-1.28-.85,2.69,2.69,0,0,0-1.16-.13c-.28,0-.42.13-.42.21s.46.32.84.65a1.83,1.83,0,0,1,.51.62,1,1,0,0,1,.07.76,1.36,1.36,0,0,1-.28.46,2.27,2.27,0,0,1-.85.56,3.45,3.45,0,0,1-1.46.23,4.24,4.24,0,0,1-1.69-.44A3.07,3.07,0,0,1,99,44.06a2.64,2.64,0,0,1-.5-1.2,3.2,3.2,0,0,1,.87-2.5A5.6,5.6,0,0,1,101.09,39a7.92,7.92,0,0,1,2.21-.7,8.44,8.44,0,0,1,4.33.39,5.84,5.84,0,0,1,1.82,1.1h0A2.42,2.42,0,0,0,108,41.43a1.14,1.14,0,0,0,0,.55,1.43,1.43,0,0,0,.3.55A1.72,1.72,0,0,0,109,43a1.84,1.84,0,0,0,1,0,1.33,1.33,0,0,0,1.1-1.08s0,0,0-.05a2.07,2.07,0,0,0,.39.34,3.85,3.85,0,0,0,1,.49,5.12,5.12,0,0,0,1.52.25h.29l.12-.19a1.82,1.82,0,0,0,.26-1,1.9,1.9,0,0,0-.26-.81,2.59,2.59,0,0,0-.31-.38l.08,0a2.35,2.35,0,0,0,1.87-.27.69.69,0,0,0,.33-.64A1,1,0,0,0,116,39a2.39,2.39,0,0,0-.61-.4,3.1,3.1,0,0,0-.73-.23,4.69,4.69,0,0,0-2.71.3h0a3.32,3.32,0,0,1-.76-1.58,3.29,3.29,0,0,1,1.2-2.9,5.92,5.92,0,0,1,1.81-1.11,8.8,8.8,0,0,1,6.12-.13,4.81,4.81,0,0,1,1.4.78,2.44,2.44,0,0,1,.76,1.07,1.6,1.6,0,0,1-.09,1.24,1.92,1.92,0,0,1-.88.83,3.16,3.16,0,0,1-1.09.32,3.34,3.34,0,0,1-.73,0,2.38,2.38,0,0,1-1-.34,2.09,2.09,0,0,1-.63-.57c-.29-.37-.29-.71-.53-.78a.48.48,0,0,0-.45.17,1,1,0,0,0-.28.79,1.68,1.68,0,0,0,.62,1.14,3.25,3.25,0,0,0,.8.52,3.91,3.91,0,0,0,1.13.3,4.93,4.93,0,0,0,1.42,0,4.86,4.86,0,0,0,1.76-.66,3.47,3.47,0,0,0,.74-.63,2.28,2.28,0,0,0,.45-.8,2.23,2.23,0,0,0-.18-1.71,3.63,3.63,0,0,0-1.15-1.27,6.4,6.4,0,0,0-1.46-.72c.59,0,1.31.07,2.18.06a14.75,14.75,0,0,0,3.2-.37,8.37,8.37,0,0,0,1.82-.67,4.51,4.51,0,0,0,1.55-1.25,2.21,2.21,0,0,0,.43-1.86,2.26,2.26,0,0,0-1-1.32,2.3,2.3,0,0,0,1-1.33,2.21,2.21,0,0,0-.43-1.86,4.51,4.51,0,0,0-1.55-1.25,8.33,8.33,0,0,0-1.82-.66,14.75,14.75,0,0,0-3.2-.37c-.87,0-1.59,0-2.18.06a6.64,6.64,0,0,0,1.46-.73,3.54,3.54,0,0,0,1.15-1.27,2.23,2.23,0,0,0,.18-1.71,2.37,2.37,0,0,0-.45-.8,3.17,3.17,0,0,0-.74-.62,4.86,4.86,0,0,0-1.76-.66,5,5,0,0,0-1.42,0,3.62,3.62,0,0,0-1.13.31,3,3,0,0,0-.8.51,1.7,1.7,0,0,0-.62,1.14,1,1,0,0,0,.28.79.52.52,0,0,0,.45.18c.24-.07.24-.41.53-.79a2.07,2.07,0,0,1,.63-.56,2.26,2.26,0,0,1,1-.35,3.34,3.34,0,0,1,.73,0,3.4,3.4,0,0,1,1.09.32,1.92,1.92,0,0,1,.88.83,1.6,1.6,0,0,1,.09,1.24,2.39,2.39,0,0,1-.76,1.07,4.83,4.83,0,0,1-1.4.79,8.46,8.46,0,0,1-3.68.44,8.72,8.72,0,0,1-2.44-.57,5.93,5.93,0,0,1-1.81-1.12,3.28,3.28,0,0,1-1.2-2.89,3.31,3.31,0,0,1,.76-1.59h0a4.78,4.78,0,0,0,2.71.29,3.1,3.1,0,0,0,.73-.23,2.15,2.15,0,0,0,.61-.4.93.93,0,0,0,.31-.59.7.7,0,0,0-.33-.64,2.39,2.39,0,0,0-1.87-.27l-.08,0a2.15,2.15,0,0,0,.31-.38,1.87,1.87,0,0,0,.26-.8,1.83,1.83,0,0,0-.26-1.06,1.4,1.4,0,0,0-.12-.18h-.29a5.2,5.2,0,0,0-1.52.26,3.5,3.5,0,0,0-1,.48,3.17,3.17,0,0,0-.39.34s0,0,0-.05a1.34,1.34,0,0,0-1.1-1.08,1.75,1.75,0,0,0-1,.05,1.61,1.61,0,0,0-.66.43,1.33,1.33,0,0,0-.3.54,1.14,1.14,0,0,0,0,.55,2.4,2.4,0,0,0,1.46,1.59h0a5.84,5.84,0,0,1-1.82,1.1,8.44,8.44,0,0,1-4.33.39,7.92,7.92,0,0,1-2.21-.7,5.6,5.6,0,0,1-1.73-1.32,3.19,3.19,0,0,1-.87-2.49,2.59,2.59,0,0,1,.5-1.2,3.09,3.09,0,0,1,1.13-.9A4.41,4.41,0,0,1,101.81,9a3.45,3.45,0,0,1,1.46.23,2.27,2.27,0,0,1,.85.56,1.36,1.36,0,0,1,.28.46,1,1,0,0,1-.07.76,2,2,0,0,1-.51.63c-.38.33-.84.46-.84.64s.14.17.42.21a2.54,2.54,0,0,0,1.16-.13,2.75,2.75,0,0,0,1.28-.85,1.79,1.79,0,0,0,.37-.71,1.39,1.39,0,0,0,0-.83,2.22,2.22,0,0,0-.61-.88A4.11,4.11,0,0,0,104,8.28a4.82,4.82,0,0,0-1.13-.22,5.72,5.72,0,0,0-1.24,0,5.59,5.59,0,0,0-2.22.79,3.8,3.8,0,0,0-1.23,1.23,2.91,2.91,0,0,0-.39,1.21A11.49,11.49,0,0,0,97,9.92a7.09,7.09,0,0,0-1.76-1.87,6.4,6.4,0,0,0-1.61-.89,7.17,7.17,0,0,0-2.28-.49,7.78,7.78,0,0,0-1.17.06A1.7,1.7,0,0,0,89.9,6a3.88,3.88,0,0,0-1.85-1.39,7.08,7.08,0,0,0-2.3-.46,10.25,10.25,0,0,0-2,.13,13.1,13.1,0,0,0-3,.9A19.76,19.76,0,0,0,79,6.08a3.41,3.41,0,0,0,.64-1.16,2.48,2.48,0,0,0,0-1.5,3.08,3.08,0,0,0-1.22-1.49,3.73,3.73,0,0,0-1-.5,5.39,5.39,0,0,0-1.11-.25,5.83,5.83,0,0,0-2,.12A4.09,4.09,0,0,0,73,1.8a2.1,2.1,0,0,0-.7.69,1.54,1.54,0,0,0-.26.73,1.57,1.57,0,0,0,.39,1.19,1.84,1.84,0,0,0,.87.55c.26.07.44,0,.51,0s-.13-.43-.19-.86a1.5,1.5,0,0,1,.08-.71,1.37,1.37,0,0,1,.55-.66,2.11,2.11,0,0,1,.6-.28A3.76,3.76,0,0,1,76,2.28a3.23,3.23,0,0,1,1.4.36,2.61,2.61,0,0,1,1.07,1,1.85,1.85,0,0,1,.22,1.17A2.56,2.56,0,0,1,78.15,6a5.66,5.66,0,0,1-2.72,1.76,8.89,8.89,0,0,1-2.5.45A8.62,8.62,0,0,1,70.52,8a6,6,0,0,1-3.31-2,3.16,3.16,0,0,1-.63-1.61h0a4.24,4.24,0,0,0,2.51-.78,1.87,1.87,0,0,0,.42-.47,1.25,1.25,0,0,0,.19-.56A.87.87,0,0,0,69.49,2a1.28,1.28,0,0,0-.79-.41,2.18,2.18,0,0,0-1.78.48l0,.05a2.06,2.06,0,0,0,0-.44A2.2,2.2,0,0,0,66.4.89,3.26,3.26,0,0,0,65.34.11,2.41,2.41,0,0,0,65.09,0h0l-.25.11a3.26,3.26,0,0,0-1.06.78,2.2,2.2,0,0,0-.43.77,2.06,2.06,0,0,0,0,.44s0,0-.05-.05a2.18,2.18,0,0,0-1.78-.48,1.28,1.28,0,0,0-.79.41.87.87,0,0,0-.21.61,1.25,1.25,0,0,0,.19.56,1.87,1.87,0,0,0,.42.47,4.23,4.23,0,0,0,2.5.78h0A3.16,3.16,0,0,1,63,6a6,6,0,0,1-3.31,2,8.62,8.62,0,0,1-2.41.25,9,9,0,0,1-2.5-.45A5.71,5.71,0,0,1,52,6a2.56,2.56,0,0,1-.54-1.19,1.85,1.85,0,0,1,.22-1.17,2.61,2.61,0,0,1,1.07-1,3.23,3.23,0,0,1,1.4-.36,3.76,3.76,0,0,1,1.16.15,2.11,2.11,0,0,1,.6.28,1.37,1.37,0,0,1,.55.66,1.5,1.5,0,0,1,.08.71c-.06.43-.33.71-.19.86s.25.09.51,0a1.84,1.84,0,0,0,.87-.55,1.57,1.57,0,0,0,.39-1.19,1.54,1.54,0,0,0-.26-.73,2.1,2.1,0,0,0-.7-.69A4.09,4.09,0,0,0,56,1.3a5.83,5.83,0,0,0-2-.12,5.39,5.39,0,0,0-1.11.25,3.73,3.73,0,0,0-1,.5,3.08,3.08,0,0,0-1.22,1.49,2.48,2.48,0,0,0-.05,1.5,3.41,3.41,0,0,0,.64,1.16,19.76,19.76,0,0,0-1.78-.88,13.1,13.1,0,0,0-3-.9,10.25,10.25,0,0,0-2-.13,7.08,7.08,0,0,0-2.3.46A3.88,3.88,0,0,0,40.28,6a1.7,1.7,0,0,0-.26.71,7.78,7.78,0,0,0-1.17-.06,7.17,7.17,0,0,0-2.28.49A6.4,6.4,0,0,0,35,8.05,7.09,7.09,0,0,0,33.2,9.92a11.49,11.49,0,0,0-.79,1.4A2.91,2.91,0,0,0,32,10.11a3.8,3.8,0,0,0-1.23-1.23,5.59,5.59,0,0,0-2.22-.79,5.72,5.72,0,0,0-1.24,0,4.82,4.82,0,0,0-1.13.22,4.11,4.11,0,0,0-1.58.85A2.22,2.22,0,0,0,24,10a1.39,1.39,0,0,0,0,.83,1.79,1.79,0,0,0,.37.71,2.75,2.75,0,0,0,1.28.85,2.54,2.54,0,0,0,1.16.13c.28,0,.42-.13.42-.21s-.46-.31-.84-.64a2,2,0,0,1-.51-.63,1,1,0,0,1-.07-.76,1.36,1.36,0,0,1,.28-.46,2.27,2.27,0,0,1,.85-.56A3.45,3.45,0,0,1,28.37,9a4.41,4.41,0,0,1,1.69.44,3,3,0,0,1,1.13.9,2.59,2.59,0,0,1,.5,1.2,3.15,3.15,0,0,1-.87,2.49,5.6,5.6,0,0,1-1.73,1.32,7.92,7.92,0,0,1-2.21.7,8.44,8.44,0,0,1-4.33-.39,5.84,5.84,0,0,1-1.82-1.1h0A2.4,2.4,0,0,0,22.2,13a1.14,1.14,0,0,0,0-.55,1.33,1.33,0,0,0-.3-.54,1.61,1.61,0,0,0-.66-.43,1.75,1.75,0,0,0-1-.05,1.34,1.34,0,0,0-1.1,1.08s0,0,0,.05a3.17,3.17,0,0,0-.39-.34,3.5,3.5,0,0,0-1-.48,5.2,5.2,0,0,0-1.52-.26H16a1.4,1.4,0,0,0-.12.18,1.83,1.83,0,0,0-.26,1.06,1.87,1.87,0,0,0,.26.8,2.15,2.15,0,0,0,.31.38l-.08,0a2.39,2.39,0,0,0-1.87.27.7.7,0,0,0-.33.64.93.93,0,0,0,.31.59,2.15,2.15,0,0,0,.61.4,3.1,3.1,0,0,0,.73.23,4.78,4.78,0,0,0,2.71-.29h0A3.39,3.39,0,0,1,19,17.31a3.28,3.28,0,0,1-1.2,2.89A5.93,5.93,0,0,1,16,21.32a8.72,8.72,0,0,1-2.44.57,8.46,8.46,0,0,1-3.68-.44,4.83,4.83,0,0,1-1.4-.79,2.39,2.39,0,0,1-.76-1.07,1.6,1.6,0,0,1,.09-1.24,1.92,1.92,0,0,1,.88-.83,3.4,3.4,0,0,1,1.09-.32,3.34,3.34,0,0,1,.73,0,2.26,2.26,0,0,1,1,.35,2.07,2.07,0,0,1,.63.56c.29.38.29.72.53.79a.51.51,0,0,0,.45-.18,1,1,0,0,0,.28-.79,1.7,1.7,0,0,0-.62-1.14,3,3,0,0,0-.8-.51A3.62,3.62,0,0,0,10.82,16,5,5,0,0,0,9.4,16a4.86,4.86,0,0,0-1.76.66,3.17,3.17,0,0,0-.74.62,2.37,2.37,0,0,0-.45.8,2.23,2.23,0,0,0,.18,1.71,3.54,3.54,0,0,0,1.15,1.27,6.51,6.51,0,0,0,1.47.73c-.6,0-1.32-.08-2.19-.06a14.75,14.75,0,0,0-3.2.37A8.33,8.33,0,0,0,2,22.78,4.51,4.51,0,0,0,.49,24a2.24,2.24,0,0,0-.43,1.86,2.3,2.3,0,0,0,1,1.33A2.26,2.26,0,0,0,.06,28.54ZM17.93,14.81c.18,0,.35.09.55.12h.37a2,2,0,0,1-.37.33A4.7,4.7,0,0,0,17.93,14.81ZM20,14.56a2.93,2.93,0,0,1-.59.11,2,2,0,0,0,.14-.23,3.15,3.15,0,0,0,.09-.36A3.16,3.16,0,0,0,20,14.56Zm-2.68.34a5.07,5.07,0,0,1,.7.59h0a4.24,4.24,0,0,1-2.38.23,2.73,2.73,0,0,1-.59-.2,1.68,1.68,0,0,1-.48-.32.69.69,0,0,1-.22-.42.48.48,0,0,1,.21-.4,1.46,1.46,0,0,1,.61-.21,2.09,2.09,0,0,1,.74.05A4.51,4.51,0,0,1,17.34,14.9Zm1.84-1.85s0,.09,0,.14l.1.21a1.59,1.59,0,0,1-.06,1,1.66,1.66,0,0,1-.2.32c-.17,0-.34,0-.51,0a4.32,4.32,0,0,1-1.31-.35c-.09,0-.17-.11-.26-.15l-.17-.07a2.39,2.39,0,0,1-.73-.66,1.73,1.73,0,0,1-.29-.75,1.71,1.71,0,0,1,.16-1l.08-.16h.25a4.61,4.61,0,0,1,1.44.31,3.32,3.32,0,0,1,.88.48A2,2,0,0,1,19.18,13.05Zm1.34,1.32h0a3.83,3.83,0,0,1-.51-.67,2.17,2.17,0,0,1-.34-1.17.86.86,0,0,1,.23-.49,1.07,1.07,0,0,1,.53-.3,1,1,0,0,1,.6,0,1.12,1.12,0,0,1,.48.3,1.18,1.18,0,0,1,.25.43,1,1,0,0,1,0,.45A2.11,2.11,0,0,1,20.52,14.37Zm43-11a2.73,2.73,0,0,1,.1.76h0a3.63,3.63,0,0,1-2.16-.71A1.41,1.41,0,0,1,61.09,3,.9.9,0,0,1,61,2.58a.63.63,0,0,1,.15-.43.75.75,0,0,1,.49-.25,1.45,1.45,0,0,1,.68.05,1.57,1.57,0,0,1,.58.32A2.46,2.46,0,0,1,63.51,3.37Zm3-.86-.09.13a2,2,0,0,0-.09.22,2.4,2.4,0,0,1-.82.79,4.28,4.28,0,0,1-.43.19,4.28,4.28,0,0,1-.43-.19,2.4,2.4,0,0,1-.82-.79,2,2,0,0,0-.09-.22l-.09-.13a1.4,1.4,0,0,1-.08-.82A1.77,1.77,0,0,1,63.94,1a3.1,3.1,0,0,1,1-.8l.2-.1.2.1a3.1,3.1,0,0,1,.95.8,1.77,1.77,0,0,1,.36.74A1.4,1.4,0,0,1,66.52,2.51ZM64.44,3.82a2.8,2.8,0,0,0,.3.15,4.76,4.76,0,0,1-.57.13,3.2,3.2,0,0,0-.09-.54A3.32,3.32,0,0,0,64.44,3.82Zm1.3,0a3.32,3.32,0,0,0,.36-.26A3.2,3.2,0,0,0,66,4.1,4.76,4.76,0,0,1,65.44,4,2.8,2.8,0,0,0,65.74,3.82Zm.83.31a2.41,2.41,0,0,1,.11-.76,2.3,2.3,0,0,1,.65-1.1A1.43,1.43,0,0,1,67.91,2a1.4,1.4,0,0,1,.67-.05.75.75,0,0,1,.49.25.63.63,0,0,1,.15.43.9.9,0,0,1-.13.45,1.41,1.41,0,0,1-.35.39,3.63,3.63,0,0,1-2.16.71Zm44,8.41a2.17,2.17,0,0,1-.34,1.17,3.83,3.83,0,0,1-.51.67h0A2.11,2.11,0,0,1,108.42,13a1.14,1.14,0,0,1,0-.45,1.18,1.18,0,0,1,.25-.43,1.12,1.12,0,0,1,.48-.3,1,1,0,0,1,.6,0,1.07,1.07,0,0,1,.53.3A.86.86,0,0,1,110.53,12.54Zm.22,2.13a2.93,2.93,0,0,1-.59-.11,3.16,3.16,0,0,0,.36-.48,3.15,3.15,0,0,0,.09.36A2,2,0,0,0,110.75,14.67Zm2.64-.54-.17.07a2.07,2.07,0,0,0-.25.15,4.47,4.47,0,0,1-1.32.35c-.17,0-.34,0-.52,0a2.23,2.23,0,0,1-.19-.32,1.59,1.59,0,0,1-.06-1l.1-.21a.58.58,0,0,1,0-.14,1.89,1.89,0,0,1,.59-.72,3.32,3.32,0,0,1,.88-.48,4.61,4.61,0,0,1,1.44-.31h.25c0,.05,0,.1.08.16a1.78,1.78,0,0,1,.16,1,1.73,1.73,0,0,1-.29.75A2.39,2.39,0,0,1,113.39,14.13Zm-1.25,1.36a5.07,5.07,0,0,1,.7-.59,4.51,4.51,0,0,1,1.42-.67,2.09,2.09,0,0,1,.74-.05,1.46,1.46,0,0,1,.61.21.48.48,0,0,1,.21.4.75.75,0,0,1-.22.42,1.77,1.77,0,0,1-.47.32,3,3,0,0,1-.6.2,4.2,4.2,0,0,1-2.37-.23Zm-.44-.23a2,2,0,0,1-.37-.33h.37c.2,0,.37-.08.55-.12A4.7,4.7,0,0,0,111.7,15.26Zm.55,24.37a3.15,3.15,0,0,0-.55-.12,2.29,2.29,0,0,0-.37,0,2.41,2.41,0,0,1,.37-.33A6.09,6.09,0,0,0,112.25,39.63Zm-2.09.24a3.84,3.84,0,0,1,.59-.11,1.49,1.49,0,0,0-.14.24,2.37,2.37,0,0,0-.09.36A3.24,3.24,0,0,0,110.16,39.87Zm2.68-.34a4.46,4.46,0,0,1-.7-.59h0a4.12,4.12,0,0,1,2.37-.22,3,3,0,0,1,.6.19,1.8,1.8,0,0,1,.47.33.72.72,0,0,1,.22.42.47.47,0,0,1-.21.39,1.34,1.34,0,0,1-.61.21,2.09,2.09,0,0,1-.74,0A4.3,4.3,0,0,1,112.84,39.53ZM111,41.39a.89.89,0,0,1,0-.14c0-.08-.07-.15-.1-.22a1.56,1.56,0,0,1,.06-1,1.86,1.86,0,0,1,.19-.33,4.47,4.47,0,0,1,.52,0,3.81,3.81,0,0,1,1.31.35l.26.14.17.08a2.37,2.37,0,0,1,.73.65,1.8,1.8,0,0,1,.13,1.78c0,.06-.06.11-.08.16h-.25a4.84,4.84,0,0,1-1.44-.3,3.63,3.63,0,0,1-.88-.48A2.06,2.06,0,0,1,111,41.39Zm-1.35-1.33h0a3.5,3.5,0,0,1,.51.67,2.14,2.14,0,0,1,.34,1.16.83.83,0,0,1-.23.49,1.07,1.07,0,0,1-.53.3,1.11,1.11,0,0,1-.6,0,1.14,1.14,0,0,1-.48-.31,1.18,1.18,0,0,1-.25-.43,1.13,1.13,0,0,1,0-.45A2.11,2.11,0,0,1,109.66,40.06Zm-43,11a2.35,2.35,0,0,1-.11-.75h0a3.56,3.56,0,0,1,2.16.7,1.41,1.41,0,0,1,.35.39.93.93,0,0,1,.13.45.65.65,0,0,1-.15.44.85.85,0,0,1-.49.25,1.55,1.55,0,0,1-.67-.06,1.41,1.41,0,0,1-.59-.32A2.36,2.36,0,0,1,66.68,51.06Zm-3,.86.09-.13a1.45,1.45,0,0,0,.09-.22,2.6,2.6,0,0,1,.82-.79,4.28,4.28,0,0,1,.43-.19,4.28,4.28,0,0,1,.43.19,2.51,2.51,0,0,1,.82.8,1.89,1.89,0,0,0,.09.21l.09.13a1.4,1.4,0,0,1,.08.82,1.77,1.77,0,0,1-.36.74,3,3,0,0,1-.95.8l-.2.1-.2-.1a3,3,0,0,1-1-.8,1.77,1.77,0,0,1-.36-.74A1.4,1.4,0,0,1,63.66,51.92Zm2.08-1.31-.3-.14a2.63,2.63,0,0,1,.57-.13,3.38,3.38,0,0,0,.09.54A3.38,3.38,0,0,0,65.74,50.61Zm-1.3,0a3.38,3.38,0,0,0-.36.27,3.38,3.38,0,0,0,.09-.54,2.63,2.63,0,0,1,.57.13Zm-.83-.3a2.66,2.66,0,0,1-.1.75,2.46,2.46,0,0,1-.65,1.1,1.44,1.44,0,0,1-.58.32,1.6,1.6,0,0,1-.68.06.85.85,0,0,1-.49-.25.65.65,0,0,1-.15-.44.93.93,0,0,1,.13-.45,1.41,1.41,0,0,1,.35-.39,3.56,3.56,0,0,1,2.16-.7Zm-44-8.42A2.14,2.14,0,0,1,20,40.73a3.5,3.5,0,0,1,.51-.67h0a2.11,2.11,0,0,1,1.24,1.41,1,1,0,0,1,0,.45,1.18,1.18,0,0,1-.25.43,1.14,1.14,0,0,1-.48.31,1.11,1.11,0,0,1-.6,0,1.07,1.07,0,0,1-.53-.3A.83.83,0,0,1,19.65,41.89Zm-.22-2.13a3.84,3.84,0,0,1,.59.11,3.24,3.24,0,0,0-.36.49,2.37,2.37,0,0,0-.09-.36A1.49,1.49,0,0,0,19.43,39.76Zm-2.64.55.17-.08.26-.14a3.81,3.81,0,0,1,1.31-.35,4.34,4.34,0,0,1,.51,0,1.46,1.46,0,0,1,.2.33,1.56,1.56,0,0,1,.06,1c0,.07-.07.14-.1.22s0,.09,0,.14a2.2,2.2,0,0,1-.6.72,3.63,3.63,0,0,1-.88.48,4.84,4.84,0,0,1-1.44.3H16l-.08-.16a1.67,1.67,0,0,1-.16-1,1.76,1.76,0,0,1,.29-.76A2.37,2.37,0,0,1,16.79,40.31ZM18,38.94a4.46,4.46,0,0,1-.7.59,4.3,4.3,0,0,1-1.42.67,2.09,2.09,0,0,1-.74,0,1.34,1.34,0,0,1-.61-.21.47.47,0,0,1-.21-.39.67.67,0,0,1,.22-.42,1.7,1.7,0,0,1,.48-.33,2.72,2.72,0,0,1,.59-.19,4.16,4.16,0,0,1,2.38.22Zm.44.23a2.41,2.41,0,0,1,.37.33,2.29,2.29,0,0,0-.37,0,3.15,3.15,0,0,0-.55.12A6.09,6.09,0,0,0,18.48,39.17ZM.66,28.61a2,2,0,0,1,.88-1.12,2.8,2.8,0,0,0,.3.15,4.44,4.44,0,0,0,2.41.21,3.8,3.8,0,0,0,.7-.21.87.87,0,0,1,.22.33.67.67,0,0,1,0,.57.83.83,0,0,1-.37.37,1.27,1.27,0,0,1-.23.08.58.58,0,0,0-.2-.54,1.43,1.43,0,0,0-1.52-.16,1.37,1.37,0,0,0-.23.17l0,0s0,0,0,.06a.86.86,0,0,0-.15.22.85.85,0,0,0,.19.84,1.52,1.52,0,0,0,.56.4,2.44,2.44,0,0,0,.77.21,2.93,2.93,0,0,0,1-.05A2.34,2.34,0,0,0,5.41,30,2.23,2.23,0,0,0,6,29.67a1.57,1.57,0,0,0,.57-1,1.38,1.38,0,0,0-.31-1.05,2.54,2.54,0,0,0-.48-.44,2.58,2.58,0,0,0,.48-.45,1.37,1.37,0,0,0,.31-1,1.52,1.52,0,0,0-.57-1,2,2,0,0,0-.54-.34,3.59,3.59,0,0,0-.59-.18,3.25,3.25,0,0,0-1-.05,2.44,2.44,0,0,0-.77.21,1.52,1.52,0,0,0-.56.4.86.86,0,0,0-.19.84.71.71,0,0,0,.15.22s0,.05,0,.07a.1.1,0,0,1,0,0,.94.94,0,0,0,.23.16A1.41,1.41,0,0,0,4.34,26a.57.57,0,0,0,.2-.54,1.27,1.27,0,0,1,.23.08.83.83,0,0,1,.37.37.69.69,0,0,1,0,.58A1.06,1.06,0,0,1,5,26.8a3.81,3.81,0,0,0-.7-.22,4.44,4.44,0,0,0-2.41.21l-.3.15a2,2,0,0,1-.88-1.12A1.94,1.94,0,0,1,1,24.21a3.91,3.91,0,0,1,1.37-1.13A7.49,7.49,0,0,1,4,22.44a13.79,13.79,0,0,1,3-.42C8,22,8.69,22,9.3,22L10,22a8.27,8.27,0,0,0,1.08.22c-.34,0-.68,0-1,.09a4.74,4.74,0,0,0-1.44.4,2.09,2.09,0,0,0-1.34,1.94,2.1,2.1,0,0,0,1.65,1.69,3.48,3.48,0,0,0,1.39.1,2.57,2.57,0,0,0,1-.39,1.46,1.46,0,0,0,.51-.52A1,1,0,0,0,12,25.2,1.12,1.12,0,0,0,11.27,24a2.19,2.19,0,0,0-1.35-.18,1.12,1.12,0,0,0-.65.33c-.08.12,0,.2,0,.23s.4,0,.76.05a1.19,1.19,0,0,1,.51.17.58.58,0,0,1,.24.52.57.57,0,0,1-.27.42,1.18,1.18,0,0,1-.53.22,1.77,1.77,0,0,1-.79,0A1.57,1.57,0,0,1,8,24.61,1.57,1.57,0,0,1,8.92,23a6.67,6.67,0,0,1,2.55-.57l1.11-.1c.35,0,.71,0,1.05,0a9.93,9.93,0,0,0,2.68-.64,6.69,6.69,0,0,0,2-1.24,3.6,3.6,0,0,0,1.28-3.19,3.71,3.71,0,0,0-.89-1.78,2.39,2.39,0,0,0,.59-.54,4,4,0,0,0,.95-.16,6.13,6.13,0,0,0,2,1.27A9.2,9.2,0,0,0,27,16.5a8.46,8.46,0,0,0,2.44-.76,6.32,6.32,0,0,0,1.91-1.44,5,5,0,0,0,.48-.65l.57-.66a4.35,4.35,0,0,1,1.76-1.39,3.7,3.7,0,0,1,2.48,0c.71.28,1.11.81,1.05,1.21a.81.81,0,0,1-.28.52,1.28,1.28,0,0,1-.5.24,1.44,1.44,0,0,1-.67,0,.92.92,0,0,1-.6-.36.45.45,0,0,1,0-.39c.08-.25.28-.38.24-.5s-.11-.1-.3-.09a1.17,1.17,0,0,0-.69.27.82.82,0,0,0-.3.92,1.68,1.68,0,0,0,1.31.91,2.91,2.91,0,0,0,1.42-.06,2.25,2.25,0,0,0,.93-.51,1.27,1.27,0,0,0,.42-.91c0-.7-.64-1.38-1.61-1.71a4.61,4.61,0,0,0-3.11.07,3.45,3.45,0,0,0-1.11.76,6,6,0,0,0-.53.62,3.37,3.37,0,0,0,.14-.77c.07-.13.14-.28.23-.44a12.19,12.19,0,0,1,.89-1.4,7.92,7.92,0,0,1,1.77-1.75,6.45,6.45,0,0,1,1.51-.79,6.38,6.38,0,0,1,2.05-.42A6,6,0,0,1,40,7.15a1.85,1.85,0,0,0,.39,1,3.1,3.1,0,0,0,1.84,1.09l.27,0a1.24,1.24,0,0,1-.6.93,2.62,2.62,0,0,1-1.64.38,1.75,1.75,0,0,1-.76-.24.86.86,0,0,1-.35-.38.38.38,0,0,1,0-.18,1.61,1.61,0,0,0,.8.09c.58-.09,1-.5.82-.9a.7.7,0,0,0-.14-.21l0,0-.07-.05a1.15,1.15,0,0,0-.23-.18,2.29,2.29,0,0,0-1.2-.21,2.5,2.5,0,0,0-.76.19,1.78,1.78,0,0,0-.58.41,1.17,1.17,0,0,0-.31.61,1,1,0,0,0,0,.45,1.08,1.08,0,0,0,.23.47,2.3,2.3,0,0,0,1.06.74,3.8,3.8,0,0,0,1.51.22,4,4,0,0,0,2.22-.81,1.78,1.78,0,0,0,.68-1.23,4.71,4.71,0,0,0,1.58-.25,2.48,2.48,0,0,0,1.09-.76,1.34,1.34,0,0,0,.3-1,1.28,1.28,0,0,0-.19-.49,1.82,1.82,0,0,0-.35-.38,2.25,2.25,0,0,0-.75-.39A2.69,2.69,0,0,0,44,5.93a2.79,2.79,0,0,0-.79.12,1.41,1.41,0,0,0-.83.64.5.5,0,0,0,0,.23s0,0,0,.07,0,0,0,.06a.44.44,0,0,0,0,.22,1.27,1.27,0,0,0,1.4.44,1.09,1.09,0,0,0,.6-.37.49.49,0,0,1,.13.15.53.53,0,0,1,0,.45,1,1,0,0,1-.44.49,2.23,2.23,0,0,1-1,.3,2.68,2.68,0,0,0-1.55-1.6,5.73,5.73,0,0,0-.89-.28,1.57,1.57,0,0,1,.22-.66A3.4,3.4,0,0,1,42.43,5a6.58,6.58,0,0,1,2-.43,9.73,9.73,0,0,1,1.9.09,13.8,13.8,0,0,1,2.87.8c.77.3,1.38.59,1.87.83l.54.28a5.85,5.85,0,0,0,.76.62,8.49,8.49,0,0,0-1-.35,5.34,5.34,0,0,0-1.53-.21,3.67,3.67,0,0,0-2.66,1.12,1.45,1.45,0,0,0,0,2,2.28,2.28,0,0,0,1.08.59,3.08,3.08,0,0,0,1.19.08,2.76,2.76,0,0,0,.83-.24,1.76,1.76,0,0,0,.4-.25,1,1,0,0,0,.37-1.25,1.44,1.44,0,0,0-1-.66,1.4,1.4,0,0,0-.8,0c-.17.06-.2.14-.18.19s.34.14.6.32a.65.65,0,0,1,.29.35.56.56,0,0,1-.22.52,1.14,1.14,0,0,1-.57.25A1.58,1.58,0,0,1,48,9.36,1,1,0,0,1,47.93,8a2.8,2.8,0,0,1,2-1,6.78,6.78,0,0,1,2.58.5l1,.33a9.06,9.06,0,0,0,.91.36,10,10,0,0,0,2.75.48,9.89,9.89,0,0,0,2.65-.28,6.4,6.4,0,0,0,3.61-2.18,3.41,3.41,0,0,0,.69-1.83,3.76,3.76,0,0,0,.92-.23,3.76,3.76,0,0,0,.92.23,3.41,3.41,0,0,0,.69,1.83,6.4,6.4,0,0,0,3.61,2.18A9.89,9.89,0,0,0,73,8.65a10,10,0,0,0,2.75-.48,9.06,9.06,0,0,0,.91-.36l1-.33A6.78,6.78,0,0,1,80.21,7a2.8,2.8,0,0,1,2,1,1,1,0,0,1-.09,1.41,1.58,1.58,0,0,1-1.26.34,1.14,1.14,0,0,1-.57-.25.56.56,0,0,1-.22-.52.65.65,0,0,1,.29-.35c.26-.18.54-.21.6-.32s0-.13-.18-.19A1.4,1.4,0,0,0,80,8a1.44,1.44,0,0,0-1,.66,1,1,0,0,0,.37,1.25,1.76,1.76,0,0,0,.4.25,2.76,2.76,0,0,0,.83.24,3.08,3.08,0,0,0,1.19-.08,2.28,2.28,0,0,0,1.08-.59,1.45,1.45,0,0,0,0-2A3.67,3.67,0,0,0,80.27,6.6a5.34,5.34,0,0,0-1.53.21,8.49,8.49,0,0,0-1,.35,5.85,5.85,0,0,0,.76-.62l.54-.28c.49-.24,1.1-.53,1.87-.83a13.8,13.8,0,0,1,2.87-.8,9.73,9.73,0,0,1,1.9-.09,6.58,6.58,0,0,1,2,.43,3.35,3.35,0,0,1,1.59,1.22,1.57,1.57,0,0,1,.22.66,5.73,5.73,0,0,0-.89.28,2.68,2.68,0,0,0-1.55,1.6,2.23,2.23,0,0,1-1-.3,1,1,0,0,1-.44-.49.53.53,0,0,1,0-.45.41.41,0,0,1,.14-.15,1,1,0,0,0,.59.37,1.27,1.27,0,0,0,1.4-.44.44.44,0,0,0,0-.22s0,0,0-.06a.25.25,0,0,0,0-.07.5.5,0,0,0,0-.23A1.41,1.41,0,0,0,87,6.05a2.79,2.79,0,0,0-.79-.12,2.69,2.69,0,0,0-.81.12,2.25,2.25,0,0,0-.75.39,1.82,1.82,0,0,0-.35.38,1.28,1.28,0,0,0-.19.49,1.34,1.34,0,0,0,.3,1,2.48,2.48,0,0,0,1.09.76A4.71,4.71,0,0,0,87,9.33a1.78,1.78,0,0,0,.68,1.23,4,4,0,0,0,2.22.81,3.8,3.8,0,0,0,1.51-.22,2.3,2.3,0,0,0,1.06-.74,1.08,1.08,0,0,0,.23-.47,1,1,0,0,0,0-.45,1.17,1.17,0,0,0-.31-.61,1.78,1.78,0,0,0-.58-.41,2.5,2.5,0,0,0-.76-.19,2.29,2.29,0,0,0-1.2.21,1.15,1.15,0,0,0-.23.18l-.07.05,0,0a.7.7,0,0,0-.14.21c-.13.4.24.81.82.9a1.61,1.61,0,0,0,.8-.09A.38.38,0,0,1,91,10a.86.86,0,0,1-.35.38,1.75,1.75,0,0,1-.76.24,2.62,2.62,0,0,1-1.64-.38,1.24,1.24,0,0,1-.6-.93l.27,0A3.1,3.1,0,0,0,89.8,8.15a1.85,1.85,0,0,0,.39-1,6,6,0,0,1,1.11-.08,6.38,6.38,0,0,1,2,.42,6.45,6.45,0,0,1,1.51.79A7.92,7.92,0,0,1,96.63,10a12.19,12.19,0,0,1,.89,1.4c.09.16.16.31.23.44a3.37,3.37,0,0,0,.14.77,6,6,0,0,0-.53-.62,3.45,3.45,0,0,0-1.11-.76,4.61,4.61,0,0,0-3.11-.07c-1,.33-1.64,1-1.61,1.71a1.27,1.27,0,0,0,.42.91,2.25,2.25,0,0,0,.93.51,2.91,2.91,0,0,0,1.42.06,1.68,1.68,0,0,0,1.31-.91.82.82,0,0,0-.3-.92,1.17,1.17,0,0,0-.69-.27c-.19,0-.28,0-.3.09s.16.25.24.5a.45.45,0,0,1,0,.39.92.92,0,0,1-.6.36,1.44,1.44,0,0,1-.67,0,1.28,1.28,0,0,1-.5-.24.81.81,0,0,1-.28-.52c-.06-.4.34-.93,1-1.21a3.7,3.7,0,0,1,2.48,0A4.35,4.35,0,0,1,97.76,13l.57.66a5,5,0,0,0,.48.65,6.32,6.32,0,0,0,1.91,1.44,8.46,8.46,0,0,0,2.44.76,9.2,9.2,0,0,0,4.76-.45,6.13,6.13,0,0,0,2-1.27,4,4,0,0,0,1,.16,2.39,2.39,0,0,0,.59.54,3.71,3.71,0,0,0-.89,1.78,3.6,3.6,0,0,0,1.28,3.19,6.69,6.69,0,0,0,2,1.24,9.93,9.93,0,0,0,2.68.64c.35,0,.7,0,1,0l1.11.1a6.67,6.67,0,0,1,2.55.57,1.57,1.57,0,0,1,.93,1.57,1.57,1.57,0,0,1-1.2,1.15,1.82,1.82,0,0,1-.8,0,1.18,1.18,0,0,1-.53-.22.57.57,0,0,1-.27-.42.58.58,0,0,1,.24-.52,1.19,1.19,0,0,1,.51-.17c.36-.06.62,0,.76-.05s.09-.11,0-.23a1.12,1.12,0,0,0-.65-.33,2.19,2.19,0,0,0-1.35.18,1.12,1.12,0,0,0-.68,1.18,1,1,0,0,0,.13.36,1.46,1.46,0,0,0,.51.52,2.57,2.57,0,0,0,1,.39,3.48,3.48,0,0,0,1.39-.1A2.1,2.1,0,0,0,123,24.68a2.09,2.09,0,0,0-1.34-1.94,4.74,4.74,0,0,0-1.44-.4c-.36-.05-.7-.07-1-.09a8.27,8.27,0,0,0,1.08-.22l.67,0c.61,0,1.34,0,2.23,0a13.79,13.79,0,0,1,3,.42,7.49,7.49,0,0,1,1.66.64,3.91,3.91,0,0,1,1.37,1.13,1.94,1.94,0,0,1,.35,1.61,2,2,0,0,1-.88,1.12l-.3-.15a4.44,4.44,0,0,0-2.41-.21,3.81,3.81,0,0,0-.7.22,1.06,1.06,0,0,1-.22-.33.69.69,0,0,1,0-.58.83.83,0,0,1,.37-.37,1.27,1.27,0,0,1,.23-.08.59.59,0,0,0,.2.54,1.41,1.41,0,0,0,1.52.16.73.73,0,0,0,.22-.16l.06,0s0-.05,0-.07a.71.71,0,0,0,.15-.22.86.86,0,0,0-.19-.84,1.52,1.52,0,0,0-.56-.4,2.44,2.44,0,0,0-.77-.21,3.25,3.25,0,0,0-1,.05,3.59,3.59,0,0,0-.59.18,2,2,0,0,0-.54.34,1.52,1.52,0,0,0-.57,1,1.37,1.37,0,0,0,.31,1,2.58,2.58,0,0,0,.48.45,2.54,2.54,0,0,0-.48.44,1.38,1.38,0,0,0-.31,1.05,1.57,1.57,0,0,0,.57,1,2.23,2.23,0,0,0,.54.33,2.34,2.34,0,0,0,.59.18,2.93,2.93,0,0,0,1,.05,2.44,2.44,0,0,0,.77-.21,1.52,1.52,0,0,0,.56-.4.72.72,0,0,0,0-1.06s0,0,0-.06l0,0a1.37,1.37,0,0,0-.23-.17,1.43,1.43,0,0,0-1.52.16.6.6,0,0,0-.2.54,1.27,1.27,0,0,1-.23-.08.83.83,0,0,1-.37-.37.67.67,0,0,1,0-.57.87.87,0,0,1,.22-.33,3.8,3.8,0,0,0,.7.21,4.44,4.44,0,0,0,2.41-.21,2.8,2.8,0,0,0,.3-.15,2,2,0,0,1,.88,1.12,1.94,1.94,0,0,1-.35,1.61,3.8,3.8,0,0,1-1.37,1.13,7.52,7.52,0,0,1-1.66.65,15.11,15.11,0,0,1-3,.42c-.89,0-1.62,0-2.23,0l-.67,0a10.34,10.34,0,0,0-1.08-.22c.34,0,.68,0,1-.09a4.48,4.48,0,0,0,1.44-.4A2.08,2.08,0,0,0,123,29.76a2.09,2.09,0,0,0-1.65-1.7,3.3,3.3,0,0,0-1.39-.09,2.43,2.43,0,0,0-1,.39,1.53,1.53,0,0,0-.51.51,1,1,0,0,0-.13.36,1.14,1.14,0,0,0,.68,1.19,2.18,2.18,0,0,0,1.35.17,1.06,1.06,0,0,0,.65-.33c.08-.11,0-.2,0-.23s-.4,0-.76,0a1.08,1.08,0,0,1-.51-.18.56.56,0,0,1,0-.94,1.3,1.3,0,0,1,.53-.22,2,2,0,0,1,.8,0,1.54,1.54,0,0,1,1.2,1.14,1.59,1.59,0,0,1-.93,1.58,6.67,6.67,0,0,1-2.55.56l-1.11.1c-.35,0-.71,0-1,0a9.24,9.24,0,0,0-2.68.64,6.48,6.48,0,0,0-2,1.23,3.6,3.6,0,0,0-1.28,3.19,3.67,3.67,0,0,0,.89,1.78,2.6,2.6,0,0,0-.59.54,4.6,4.6,0,0,0-1,.16,6.47,6.47,0,0,0-2-1.27,9.3,9.3,0,0,0-4.76-.45,8.78,8.78,0,0,0-2.44.76,6.49,6.49,0,0,0-1.91,1.44,5.72,5.72,0,0,0-.48.65l-.57.66A4.19,4.19,0,0,1,96,42.83a3.64,3.64,0,0,1-2.48,0c-.71-.27-1.11-.8-1-1.21a.84.84,0,0,1,.28-.52,1.28,1.28,0,0,1,.5-.24,1.44,1.44,0,0,1,.67,0,.92.92,0,0,1,.6.36.47.47,0,0,1,0,.4c-.08.24-.28.37-.24.49s.11.1.3.1a1.26,1.26,0,0,0,.69-.28.82.82,0,0,0,.3-.92,1.65,1.65,0,0,0-1.31-.9,2,2,0,0,0-.53-.06,3,3,0,0,0-.89.11,2.37,2.37,0,0,0-.93.51,1.27,1.27,0,0,0-.42.91c0,.7.64,1.39,1.61,1.71a4.55,4.55,0,0,0,3.11-.07,3.6,3.6,0,0,0,1.11-.75,7.38,7.38,0,0,0,.53-.63,3.47,3.47,0,0,0-.14.77c-.07.14-.14.28-.23.44a11.38,11.38,0,0,1-.89,1.4,7.71,7.71,0,0,1-1.77,1.75,6.86,6.86,0,0,1-1.51.8,6.38,6.38,0,0,1-2,.41,6,6,0,0,1-1.11-.07,1.88,1.88,0,0,0-.39-1A3,3,0,0,0,88,45.2l-.27,0a1.21,1.21,0,0,1,.6-.93,2.62,2.62,0,0,1,1.64-.39,1.75,1.75,0,0,1,.76.25.81.81,0,0,1,.35.38.33.33,0,0,1,0,.17,1.51,1.51,0,0,0-.8-.08c-.58.09-1,.49-.82.89a.6.6,0,0,0,.14.21l0,.05.07,0a.88.88,0,0,0,.23.18,2.19,2.19,0,0,0,1.2.22,2.25,2.25,0,0,0,.76-.2,1.76,1.76,0,0,0,.58-.4,1.25,1.25,0,0,0,.31-.62,1,1,0,0,0,0-.45,1.08,1.08,0,0,0-.23-.47,2.3,2.3,0,0,0-1.06-.74,3.8,3.8,0,0,0-1.51-.22,4,4,0,0,0-2.22.81A1.8,1.8,0,0,0,87,45.11a4.26,4.26,0,0,0-1.58.25,2.39,2.39,0,0,0-1.09.75,1.38,1.38,0,0,0-.3,1,1.24,1.24,0,0,0,.19.48,1.6,1.6,0,0,0,.35.38,2.08,2.08,0,0,0,.75.39,2.69,2.69,0,0,0,.81.13,2.47,2.47,0,0,0,.79-.13,1.44,1.44,0,0,0,.83-.63.57.57,0,0,0,0-.24.19.19,0,0,0,0-.07l0,0a.48.48,0,0,0,0-.23,1.28,1.28,0,0,0-1.4-.44,1,1,0,0,0-.59.38.44.44,0,0,1-.14-.16.53.53,0,0,1,0-.45,1,1,0,0,1,.44-.49,2.36,2.36,0,0,1,1-.3,2.68,2.68,0,0,0,1.55,1.6,5.73,5.73,0,0,0,.89.28,1.61,1.61,0,0,1-.22.67,3.39,3.39,0,0,1-1.59,1.21,6.31,6.31,0,0,1-2,.43,9,9,0,0,1-1.9-.09,13.21,13.21,0,0,1-2.87-.8c-.77-.3-1.38-.59-1.87-.83l-.54-.28a5.8,5.8,0,0,0-.76-.61c.31.12.62.24,1,.34a5,5,0,0,0,1.53.21,3.66,3.66,0,0,0,2.66-1.11,1.45,1.45,0,0,0,0-2,2.39,2.39,0,0,0-1.08-.6A3.07,3.07,0,0,0,80.64,44a2.51,2.51,0,0,0-.83.23,2.21,2.21,0,0,0-.4.25A1,1,0,0,0,79,45.75a1.42,1.42,0,0,0,1,.65,1.52,1.52,0,0,0,.8,0c.17-.07.21-.14.18-.19s-.34-.15-.6-.33a.63.63,0,0,1-.29-.34.56.56,0,0,1,.22-.53,1.08,1.08,0,0,1,.57-.24,1.58,1.58,0,0,1,.61,0,1.49,1.49,0,0,1,.65.33,1,1,0,0,1,.09,1.4,2.76,2.76,0,0,1-2,1A6.58,6.58,0,0,1,77.63,47l-1-.34c-.29-.13-.6-.25-.91-.36A10,10,0,0,0,73,45.78a9.5,9.5,0,0,0-2.65.29,6.34,6.34,0,0,0-3.61,2.18A3.38,3.38,0,0,0,66,50.07a4.27,4.27,0,0,0-.92.23,4.27,4.27,0,0,0-.92-.23,3.38,3.38,0,0,0-.69-1.82,6.34,6.34,0,0,0-3.61-2.18,9.5,9.5,0,0,0-2.65-.29,10,10,0,0,0-2.75.48c-.31.11-.62.23-.91.36l-1,.34a6.58,6.58,0,0,1-2.58.49,2.76,2.76,0,0,1-2-1,1,1,0,0,1,.09-1.4,1.49,1.49,0,0,1,.65-.33,1.58,1.58,0,0,1,.61,0,1.08,1.08,0,0,1,.57.24.56.56,0,0,1,.22.53.63.63,0,0,1-.29.34c-.26.18-.54.21-.6.33s0,.12.18.19a1.52,1.52,0,0,0,.8,0,1.42,1.42,0,0,0,1-.65,1,1,0,0,0-.37-1.26,2.21,2.21,0,0,0-.4-.25,2.51,2.51,0,0,0-.83-.23,3.07,3.07,0,0,0-1.19.07,2.39,2.39,0,0,0-1.08.6,1.45,1.45,0,0,0,0,2,3.66,3.66,0,0,0,2.66,1.11,5,5,0,0,0,1.53-.21c.35-.1.66-.22,1-.34a5.8,5.8,0,0,0-.76.61l-.54.28c-.49.24-1.1.53-1.87.83a13.21,13.21,0,0,1-2.87.8,9,9,0,0,1-1.9.09,6.31,6.31,0,0,1-2-.43,3.44,3.44,0,0,1-1.59-1.21,1.61,1.61,0,0,1-.22-.67,5.73,5.73,0,0,0,.89-.28,2.68,2.68,0,0,0,1.55-1.6,2.36,2.36,0,0,1,1,.3,1,1,0,0,1,.44.49.51.51,0,0,1-.14.61,1,1,0,0,0-.6-.38,1.28,1.28,0,0,0-1.4.44.48.48,0,0,0,0,.23l0,0a.19.19,0,0,0,0,.07.57.57,0,0,0,0,.24,1.44,1.44,0,0,0,.83.63,2.47,2.47,0,0,0,.79.13,2.69,2.69,0,0,0,.81-.13,2.08,2.08,0,0,0,.75-.39,1.6,1.6,0,0,0,.35-.38,1.24,1.24,0,0,0,.19-.48,1.38,1.38,0,0,0-.3-1,2.39,2.39,0,0,0-1.09-.75,4.26,4.26,0,0,0-1.58-.25,1.8,1.8,0,0,0-.68-1.24,4,4,0,0,0-2.22-.81,3.8,3.8,0,0,0-1.51.22,2.3,2.3,0,0,0-1.06.74,1.08,1.08,0,0,0-.23.47,1,1,0,0,0,0,.45,1.25,1.25,0,0,0,.31.62,1.76,1.76,0,0,0,.58.4,2.25,2.25,0,0,0,.76.2,2.19,2.19,0,0,0,1.2-.22.88.88,0,0,0,.23-.18l.07,0,0-.05a.6.6,0,0,0,.14-.21c.13-.4-.24-.8-.82-.89a1.51,1.51,0,0,0-.8.08.33.33,0,0,1,0-.17.81.81,0,0,1,.35-.38,1.75,1.75,0,0,1,.76-.25,2.62,2.62,0,0,1,1.64.39,1.21,1.21,0,0,1,.6.93l-.27,0a3,3,0,0,0-1.84,1.08,1.88,1.88,0,0,0-.39,1,6,6,0,0,1-1.11.07A6.38,6.38,0,0,1,36.83,47a6.86,6.86,0,0,1-1.51-.8,7.71,7.71,0,0,1-1.77-1.75,11.38,11.38,0,0,1-.89-1.4c-.09-.16-.16-.3-.23-.44a3.47,3.47,0,0,0-.14-.77,7.38,7.38,0,0,0,.53.63,3.6,3.6,0,0,0,1.11.75,4.55,4.55,0,0,0,3.11.07c1-.32,1.64-1,1.61-1.71a1.27,1.27,0,0,0-.42-.91,2.37,2.37,0,0,0-.93-.51,3,3,0,0,0-.89-.11,2,2,0,0,0-.53.06,1.65,1.65,0,0,0-1.31.9.82.82,0,0,0,.3.92,1.26,1.26,0,0,0,.69.28c.19,0,.28,0,.3-.1s-.16-.25-.24-.49a.47.47,0,0,1,0-.4.92.92,0,0,1,.6-.36,1.44,1.44,0,0,1,.67,0,1.28,1.28,0,0,1,.5.24.84.84,0,0,1,.28.52c.06.41-.34.94-1.05,1.21a3.64,3.64,0,0,1-2.48,0,4.19,4.19,0,0,1-1.76-1.39l-.57-.66a5.72,5.72,0,0,0-.48-.65,6.49,6.49,0,0,0-1.91-1.44A8.78,8.78,0,0,0,27,37.93a9.3,9.3,0,0,0-4.76.45,6.47,6.47,0,0,0-2,1.27,4.6,4.6,0,0,0-.95-.16,2.6,2.6,0,0,0-.59-.54,3.67,3.67,0,0,0,.89-1.78A3.6,3.6,0,0,0,18.3,34a6.48,6.48,0,0,0-2-1.23,9.24,9.24,0,0,0-2.68-.64c-.34,0-.7,0-1.05,0L11.47,32a6.67,6.67,0,0,1-2.55-.56A1.59,1.59,0,0,1,8,29.82,1.54,1.54,0,0,1,9.2,28.68a2,2,0,0,1,.79,0,1.3,1.3,0,0,1,.53.22.56.56,0,0,1,0,.94A1.08,1.08,0,0,1,10,30c-.36.05-.62,0-.76,0s-.09.12,0,.23a1.06,1.06,0,0,0,.65.33,2.18,2.18,0,0,0,1.35-.17A1.14,1.14,0,0,0,12,29.23a1,1,0,0,0-.13-.36,1.53,1.53,0,0,0-.51-.51,2.43,2.43,0,0,0-1-.39,3.3,3.3,0,0,0-1.39.09,2.09,2.09,0,0,0-1.65,1.7,2.08,2.08,0,0,0,1.34,1.93,4.48,4.48,0,0,0,1.44.4c.36,0,.7.07,1,.09A10.34,10.34,0,0,0,10,32.4l-.67,0c-.61,0-1.34,0-2.23,0A15.11,15.11,0,0,1,4,32a7.52,7.52,0,0,1-1.66-.65A3.8,3.8,0,0,1,1,30.22,1.94,1.94,0,0,1,.66,28.61ZM40.94,46.49a2.15,2.15,0,0,1,1.47-.78A2.25,2.25,0,0,1,41.17,47l-.52.19A1.63,1.63,0,0,1,40.94,46.49ZM89,47a2.25,2.25,0,0,1-1.24-1.24,2.15,2.15,0,0,1,1.47.78,1.63,1.63,0,0,1,.29.65Zm39-19.69a2.94,2.94,0,0,1-1.85.09,2.2,2.2,0,0,1-.36-.13,3.84,3.84,0,0,1,.36-.14,3,3,0,0,1,1.85.1l.08,0ZM89.24,8a2.19,2.19,0,0,1-1.47.78A2.19,2.19,0,0,1,89,7.49a3.24,3.24,0,0,1,.52-.19A1.63,1.63,0,0,1,89.24,8ZM41.17,7.49a2.19,2.19,0,0,1,1.24,1.24A2.19,2.19,0,0,1,40.94,8a1.63,1.63,0,0,1-.29-.65A3.24,3.24,0,0,1,41.17,7.49Zm-39,19.69A3,3,0,0,1,4,27.08a3,3,0,0,1,.36.14,1.91,1.91,0,0,1-.36.13,2.94,2.94,0,0,1-1.85-.09l-.08,0Z"/><path class="cls-1" d="M1.94,32.09c.12,0,.54.2,1.16.37a13.87,13.87,0,0,0,2.26.39,13.36,13.36,0,0,0,2.27,0c.3,0,.56,0,.74-.07l.28,0-.27.07c-.17.05-.42.1-.72.16a13.4,13.4,0,0,1-2.34.24,14.93,14.93,0,0,1-2.5-.15,11.48,11.48,0,0,1-1.37-.27c-.9-.23-1.16-.62-1-.81S1.19,31.8,1.94,32.09Z"/><path class="cls-1" d="M2.86,33.39c.09,0,.42,0,.88.08a14.08,14.08,0,0,0,1.62,0,15.25,15.25,0,0,0,1.57-.14l.7-.11L7,33.47a11.84,11.84,0,0,1-1.53.4c-.58.12-1.2.21-1.7.26l-1,.06c-.67,0-1-.25-.92-.47S2.27,33.31,2.86,33.39Z"/><path class="cls-1" d="M3.49,34.66l3.59-1s-2.78,1.54-3,1.66a.77.77,0,0,1-.93-.09C3,35.07,3,34.79,3.49,34.66Z"/><path class="cls-1" d="M5.7,35a4.25,4.25,0,0,1,.72-.61l.27-.16.1-.06-.07.08-.17.21a2.22,2.22,0,0,0-.34.69,1.78,1.78,0,0,0-.1.73,2.31,2.31,0,0,0,0,.39c0,.24-.22.4-.55.43s-.69-.12-.61-.46a2.31,2.31,0,0,1,.17-.47A3.13,3.13,0,0,1,5.7,35Z"/><path class="cls-1" d="M85.49,3.77a11.75,11.75,0,0,0-1.26.12,13.94,13.94,0,0,0-2.2.53,10.42,10.42,0,0,0-1.92.84c-.24.14-.43.25-.56.34l-.2.14.17-.16c.1-.1.27-.24.47-.41a10.74,10.74,0,0,1,1.76-1.08A12.75,12.75,0,0,1,84,3.27c.68-.18,1.21-.28,1.36-.3.94-.14,1.47.09,1.46.31S86.34,3.72,85.49,3.77Z"/><path class="cls-1" d="M83.68,3c-.08,0-.39.11-.8.26a12.68,12.68,0,0,0-1.38.59,11.58,11.58,0,0,0-1.2.71c-.3.21-.49.36-.49.36s.13-.18.36-.44a8.75,8.75,0,0,1,1-.91,9.66,9.66,0,0,1,1.22-.85c.38-.23.68-.38.76-.42.55-.26,1-.16,1.14,0S84.24,2.87,83.68,3Z"/><path class="cls-1" d="M79.9,4.36S81,2,81.1,1.83A.71.71,0,0,1,82,1.56c.29.1.47.36.18.64Z"/><path class="cls-1" d="M79.83,3.79a.37.37,0,0,0,0,.09v-.1a1.29,1.29,0,0,0,0-.24,1.89,1.89,0,0,0-.26-.7A2.77,2.77,0,0,0,79,2.19l-.36-.3c-.24-.19-.14-.42.11-.57a.64.64,0,0,1,.88.15,2.68,2.68,0,0,1,.24.46,2.72,2.72,0,0,1,.17.84,2.24,2.24,0,0,1-.12.78A1.54,1.54,0,0,1,79.83,3.79Z"/><path class="cls-1" d="M48.43,4.09a10.74,10.74,0,0,1,1.76,1.08c.2.17.37.31.47.41l.17.16-.2-.14c-.13-.09-.32-.2-.56-.34a10.42,10.42,0,0,0-1.92-.84A13.94,13.94,0,0,0,46,3.89a11.75,11.75,0,0,0-1.26-.12c-.85,0-1.29-.25-1.29-.49s.52-.45,1.46-.31c.15,0,.68.12,1.36.3A12.75,12.75,0,0,1,48.43,4.09Z"/><path class="cls-1" d="M49.05,3.6a8.75,8.75,0,0,1,1,.91c.23.26.36.44.36.44s-.19-.15-.49-.36a11.58,11.58,0,0,0-1.2-.71,12.68,12.68,0,0,0-1.38-.59c-.41-.15-.72-.24-.8-.26-.56-.16-.71-.44-.57-.66s.59-.3,1.14,0c.08,0,.38.19.76.42A9.66,9.66,0,0,1,49.05,3.6Z"/><path class="cls-1" d="M48,2.2c-.29-.28-.11-.54.18-.64a.71.71,0,0,1,.86.27c.1.2,1.2,2.53,1.2,2.53Z"/><path class="cls-1" d="M51.18,2.19a2.77,2.77,0,0,0-.49.65,2.09,2.09,0,0,0-.26.7,1.29,1.29,0,0,0,0,.24v.1a.37.37,0,0,0,0-.09,1.54,1.54,0,0,1-.09-.24,2.24,2.24,0,0,1-.12-.78,2.72,2.72,0,0,1,.17-.84,2.68,2.68,0,0,1,.24-.46.64.64,0,0,1,.88-.15c.25.15.35.38.11.57C51.5,1.92,51.36,2,51.18,2.19Z"/><path class="cls-1" d="M36,6.92a11.07,11.07,0,0,0-1,.59,7.86,7.86,0,0,0-1.42,1.27,6.32,6.32,0,0,0-.93,1.42c-.08.21-.16.38-.19.5l-.06.19s0-.07,0-.2,0-.3.08-.52a5.12,5.12,0,0,1,.6-1.57,7.28,7.28,0,0,1,1.19-1.52,6.69,6.69,0,0,1,.9-.75c.67-.48,1.29-.49,1.47-.3S36.7,6.56,36,6.92Z"/><path class="cls-1" d="M33.46,7.51a7,7,0,0,0-.68,1,5.24,5.24,0,0,0-.43,1c-.09.29-.13.49-.13.49a4.81,4.81,0,0,1,0-.5,4.61,4.61,0,0,1,.07-1.13,6.21,6.21,0,0,1,.33-1.17,5.54,5.54,0,0,1,.31-.64.81.81,0,0,1,1-.39c.28.12.38.42,0,.76C33.87,7,33.69,7.23,33.46,7.51Z"/><path class="cls-1" d="M30.81,7c-.11-.33.17-.53.5-.56s.68.13.66.47-.14,2.65-.14,2.65S30.88,7.17,30.81,7Z"/><path class="cls-1" d="M31.31,9.08a.41.41,0,0,0,0,.09l-.08-.08-.22-.19a4.07,4.07,0,0,0-.78-.49,5.12,5.12,0,0,0-.93-.35l-.54-.12c-.35-.06-.45-.3-.36-.52s.43-.39.86-.2a4.36,4.36,0,0,1,.56.29,4.84,4.84,0,0,1,.81.64,3.11,3.11,0,0,1,.53.69A2.15,2.15,0,0,1,31.31,9.08Z"/><path class="cls-1" d="M5.32,21.2a15.67,15.67,0,0,1,2.34.24l.72.16.27.07-.28,0-.74-.07a13.36,13.36,0,0,0-2.27,0A13.79,13.79,0,0,0,3.1,22a9.46,9.46,0,0,0-1.16.37c-.75.28-1.28.28-1.47.08s.08-.57,1-.81c.14,0,.66-.16,1.37-.27A16.07,16.07,0,0,1,5.32,21.2Z"/><path class="cls-1" d="M5.45,20.56A13.73,13.73,0,0,1,7,21c.4.13.65.23.65.23s-.28-.06-.7-.12a13.06,13.06,0,0,0-1.57-.13,14.24,14.24,0,0,0-1.62,0,8.5,8.5,0,0,0-.88.09c-.59.07-.94-.11-1-.34s.25-.47.92-.46c.1,0,.48,0,1,.06A14.57,14.57,0,0,1,5.45,20.56Z"/><path class="cls-1" d="M3.49,19.77c-.46-.12-.53-.4-.36-.6a.76.76,0,0,1,.93-.1l3,1.66Z"/><path class="cls-1" d="M6.55,20l.17.21.07.08-.1-.06a2.3,2.3,0,0,1-.27-.16,3.83,3.83,0,0,1-.72-.61,3.29,3.29,0,0,1-.53-.76A2.54,2.54,0,0,1,5,18.21c-.08-.34.29-.49.61-.46s.6.19.55.44a2.14,2.14,0,0,0,0,.39,1.76,1.76,0,0,0,.1.72A2.22,2.22,0,0,0,6.55,20Z"/><path class="cls-1" d="M97.62,10.17c0,.22.07.4.08.52v.2l-.06-.19c0-.12-.11-.29-.19-.5a6.32,6.32,0,0,0-.93-1.42,7.86,7.86,0,0,0-1.42-1.27,11.07,11.07,0,0,0-1-.59c-.68-.36-.88-.7-.7-.89s.8-.18,1.47.3a6.69,6.69,0,0,1,.9.75A7.28,7.28,0,0,1,97,8.6,5.12,5.12,0,0,1,97.62,10.17Z"/><path class="cls-1" d="M97.83,9.57a5.24,5.24,0,0,0-.43-1,7,7,0,0,0-.68-1c-.23-.28-.41-.47-.46-.52-.34-.34-.24-.64,0-.76a.81.81,0,0,1,1,.39,5.54,5.54,0,0,1,.31.64,6.21,6.21,0,0,1,.33,1.17A4.61,4.61,0,0,1,98,9.56a4.81,4.81,0,0,1,0,.5S97.92,9.86,97.83,9.57Z"/><path class="cls-1" d="M98.35,9.53s-.13-2.44-.14-2.65.33-.49.66-.47.61.23.5.56S98.35,9.53,98.35,9.53Z"/><path class="cls-1" d="M101.38,7.94l-.54.12a5.12,5.12,0,0,0-.93.35,4.41,4.41,0,0,0-.78.49l-.22.19-.08.08,0-.09A2.15,2.15,0,0,1,99,8.84a3.11,3.11,0,0,1,.53-.69,4.84,4.84,0,0,1,.81-.64,4.36,4.36,0,0,1,.56-.29c.43-.19.78,0,.86.2S101.73,7.88,101.38,7.94Z"/><path class="cls-1" d="M128.24,22.35a9.46,9.46,0,0,0-1.16-.37,13.79,13.79,0,0,0-2.26-.4,13.36,13.36,0,0,0-2.27,0l-.74.07-.27,0,.26-.07.72-.16a15.67,15.67,0,0,1,2.34-.24,16.07,16.07,0,0,1,2.5.15c.71.11,1.23.23,1.37.27.9.24,1.16.63,1,.81S129,22.63,128.24,22.35Z"/><path class="cls-1" d="M127.32,21.05a8.5,8.5,0,0,0-.88-.09,14.2,14.2,0,0,0-1.62,0,13.06,13.06,0,0,0-1.57.13c-.42.06-.7.12-.7.12s.25-.1.65-.23a13.73,13.73,0,0,1,1.53-.4,14.57,14.57,0,0,1,1.7-.25c.49,0,.87-.06,1-.06.67,0,1,.24.92.46S127.91,21.12,127.32,21.05Z"/><path class="cls-1" d="M126.69,19.77l-3.59,1,3-1.66a.76.76,0,0,1,.93.1C127.22,19.37,127.15,19.65,126.69,19.77Z"/><path class="cls-1" d="M124.48,19.45a3.83,3.83,0,0,1-.72.61,2.3,2.3,0,0,1-.27.16l-.1.06.07-.08.17-.21a2.22,2.22,0,0,0,.34-.69,2,2,0,0,0,.1-.72,2.14,2.14,0,0,0,0-.39c0-.25.22-.4.55-.44s.69.12.61.46a2.54,2.54,0,0,1-.17.48A3.29,3.29,0,0,1,124.48,19.45Z"/></g></g></svg>